<mxfile host="app.diagrams.net" agent="Mozilla/5.0 (Windows NT 10.0; Win64; x64) AppleWebKit/537.36 (KHTML, like Gecko) Chrome/127.0.0.0 Safari/537.36 OPR/113.0.0.0" version="24.7.16">
  <diagram name="Page-1" id="MN1qN3B3qzD8FUsyALoD">
    <mxGraphModel dx="967" dy="528" grid="1" gridSize="10" guides="1" tooltips="1" connect="1" arrows="1" fold="1" page="1" pageScale="1" pageWidth="850" pageHeight="1100" math="0" shadow="0">
      <root>
        <mxCell id="0" />
        <mxCell id="1" parent="0" />
        <mxCell id="69lYFB5s9Q9LjJjPDh1T-1" value="" style="ellipse;html=1;shape=startState;fillColor=#000000;strokeColor=#ff0000;" vertex="1" parent="1">
          <mxGeometry x="110" y="290" width="30" height="30" as="geometry" />
        </mxCell>
        <mxCell id="69lYFB5s9Q9LjJjPDh1T-2" value="" style="edgeStyle=orthogonalEdgeStyle;html=1;verticalAlign=bottom;endArrow=open;endSize=8;strokeColor=#ff0000;rounded=0;" edge="1" source="69lYFB5s9Q9LjJjPDh1T-1" parent="1">
          <mxGeometry relative="1" as="geometry">
            <mxPoint x="125" y="380" as="targetPoint" />
          </mxGeometry>
        </mxCell>
        <mxCell id="69lYFB5s9Q9LjJjPDh1T-3" value="Load Display" style="rounded=1;whiteSpace=wrap;html=1;arcSize=40;fontColor=#000000;fillColor=#ffffc0;strokeColor=#ff0000;" vertex="1" parent="1">
          <mxGeometry x="65" y="380" width="120" height="40" as="geometry" />
        </mxCell>
        <mxCell id="69lYFB5s9Q9LjJjPDh1T-4" value="" style="edgeStyle=orthogonalEdgeStyle;html=1;verticalAlign=bottom;endArrow=open;endSize=8;strokeColor=#ff0000;rounded=0;" edge="1" source="69lYFB5s9Q9LjJjPDh1T-3" parent="1">
          <mxGeometry relative="1" as="geometry">
            <mxPoint x="260" y="400" as="targetPoint" />
          </mxGeometry>
        </mxCell>
        <mxCell id="69lYFB5s9Q9LjJjPDh1T-5" value="Sort Mode Changed?" style="rhombus;whiteSpace=wrap;html=1;fontColor=#000000;fillColor=#ffffc0;strokeColor=#ff0000;" vertex="1" parent="1">
          <mxGeometry x="260" y="355" width="100" height="90" as="geometry" />
        </mxCell>
        <mxCell id="69lYFB5s9Q9LjJjPDh1T-6" value="no" style="edgeStyle=orthogonalEdgeStyle;html=1;align=left;verticalAlign=bottom;endArrow=open;endSize=8;strokeColor=#ff0000;rounded=0;" edge="1" source="69lYFB5s9Q9LjJjPDh1T-5" parent="1">
          <mxGeometry x="-1" relative="1" as="geometry">
            <mxPoint x="440" y="400" as="targetPoint" />
          </mxGeometry>
        </mxCell>
        <mxCell id="69lYFB5s9Q9LjJjPDh1T-7" value="yes" style="edgeStyle=orthogonalEdgeStyle;html=1;align=left;verticalAlign=top;endArrow=open;endSize=8;strokeColor=#ff0000;rounded=0;entryX=1;entryY=0.5;entryDx=0;entryDy=0;" edge="1" source="69lYFB5s9Q9LjJjPDh1T-5" parent="1" target="69lYFB5s9Q9LjJjPDh1T-8">
          <mxGeometry x="-1" relative="1" as="geometry">
            <mxPoint x="220" y="480" as="targetPoint" />
            <Array as="points">
              <mxPoint x="310" y="480" />
            </Array>
          </mxGeometry>
        </mxCell>
        <mxCell id="69lYFB5s9Q9LjJjPDh1T-8" value="Update List" style="rounded=1;whiteSpace=wrap;html=1;arcSize=40;fontColor=#000000;fillColor=#ffffc0;strokeColor=#ff0000;" vertex="1" parent="1">
          <mxGeometry x="65" y="460" width="120" height="40" as="geometry" />
        </mxCell>
        <mxCell id="69lYFB5s9Q9LjJjPDh1T-9" value="" style="edgeStyle=orthogonalEdgeStyle;html=1;verticalAlign=bottom;endArrow=open;endSize=8;strokeColor=#ff0000;rounded=0;entryX=0.5;entryY=1;entryDx=0;entryDy=0;" edge="1" source="69lYFB5s9Q9LjJjPDh1T-8" parent="1" target="69lYFB5s9Q9LjJjPDh1T-3">
          <mxGeometry relative="1" as="geometry">
            <mxPoint x="125" y="560" as="targetPoint" />
          </mxGeometry>
        </mxCell>
        <mxCell id="69lYFB5s9Q9LjJjPDh1T-13" value="Search Changed?" style="rhombus;whiteSpace=wrap;html=1;fontColor=#000000;fillColor=#ffffc0;strokeColor=#ff0000;" vertex="1" parent="1">
          <mxGeometry x="440" y="355" width="90" height="90" as="geometry" />
        </mxCell>
        <mxCell id="69lYFB5s9Q9LjJjPDh1T-14" value="no" style="edgeStyle=orthogonalEdgeStyle;html=1;align=left;verticalAlign=bottom;endArrow=open;endSize=8;strokeColor=#ff0000;rounded=0;" edge="1" source="69lYFB5s9Q9LjJjPDh1T-13" parent="1">
          <mxGeometry x="-1" relative="1" as="geometry">
            <mxPoint x="620" y="400" as="targetPoint" />
          </mxGeometry>
        </mxCell>
        <mxCell id="69lYFB5s9Q9LjJjPDh1T-15" value="yes" style="edgeStyle=orthogonalEdgeStyle;html=1;align=left;verticalAlign=top;endArrow=open;endSize=8;strokeColor=#ff0000;rounded=0;" edge="1" source="69lYFB5s9Q9LjJjPDh1T-13" parent="1">
          <mxGeometry x="-1" relative="1" as="geometry">
            <mxPoint x="310" y="480" as="targetPoint" />
            <Array as="points">
              <mxPoint x="485" y="480" />
            </Array>
          </mxGeometry>
        </mxCell>
        <mxCell id="69lYFB5s9Q9LjJjPDh1T-18" value="" style="ellipse;html=1;shape=endState;fillColor=#000000;strokeColor=#ff0000;" vertex="1" parent="1">
          <mxGeometry x="620" y="385" width="30" height="30" as="geometry" />
        </mxCell>
      </root>
    </mxGraphModel>
  </diagram>
</mxfile>
